<svg xmlns="http://www.w3.org/2000/svg" version="1.1" xmlns:xlink="http://www.w3.org/1999/xlink" xmlns:svgjs="http://svgjs.dev/svgjs" width="1500" height="1500" viewBox="0 0 1500 1500"><rect width="1500" height="1500" fill="#000000"></rect><g transform="matrix(0.6666666666666666,0,0,0.6666666666666666,249.39393939393938,579.3001261416147)"><svg viewBox="0 0 396 135" data-background-color="#fecbca" preserveAspectRatio="xMidYMid meet" height="511" width="1500" xmlns="http://www.w3.org/2000/svg" xmlns:xlink="http://www.w3.org/1999/xlink"><g id="tight-bounds" transform="matrix(1,0,0,1,0.2400000000000091,0.1452533391840518)"><svg viewBox="0 0 395.52 134.70949332163187" height="134.70949332163187" width="395.52"><g><svg viewBox="0 0 395.52 134.70949332163187" height="134.70949332163187" width="395.52"><g><svg viewBox="0 0 652.0753134434906 222.0892371599841" height="134.70949332163187" width="395.52"><g transform="matrix(1,0,0,1,256.55531344349055,33.174842353344545)"><svg viewBox="0 0 395.52 155.739552453295" height="155.739552453295" width="395.52"><g id="textblocktransform"><svg viewBox="0 0 395.52 155.739552453295" height="155.739552453295" width="395.52" id="textblock"><g><svg viewBox="0 0 395.52 155.739552453295" height="155.739552453295" width="395.52"><g transform="matrix(1,0,0,1,0,0)"><svg width="395.52" viewBox="1.4499999999999993 -38.6 249.54999999999998 90" height="155.739552453295" data-palette-color="#131313"><svg></svg><svg></svg><g class="wordmark-text-0" data-fill-palette-color="primary" id="text-0"><path d="M6.35 0.35v0c-0.6 0-1.067-0.177-1.4-0.53-0.333-0.347-0.5-0.837-0.5-1.47v0-31.95c0-0.667 0.167-1.167 0.5-1.5 0.333-0.333 0.8-0.5 1.4-0.5v0c0.533 0 0.96 0.11 1.28 0.33 0.313 0.213 0.603 0.57 0.87 1.07v0l13.7 25.8h-1.5l13.65-25.8c0.267-0.5 0.55-0.857 0.85-1.07 0.3-0.22 0.733-0.33 1.3-0.33v0c0.567 0 1.017 0.167 1.35 0.5 0.333 0.333 0.5 0.833 0.5 1.5v0 31.95c0 0.633-0.157 1.123-0.47 1.47-0.32 0.353-0.797 0.53-1.43 0.53v0c-0.6 0-1.067-0.177-1.4-0.53-0.333-0.347-0.5-0.837-0.5-1.47v0-28.1h1.2l-12.5 23.45c-0.233 0.433-0.473 0.74-0.72 0.92-0.253 0.187-0.613 0.28-1.08 0.28v0c-0.467 0-0.833-0.1-1.1-0.3-0.267-0.2-0.5-0.5-0.7-0.9v0l-12.65-23.5h1.2v28.15c0 0.633-0.157 1.123-0.47 1.47-0.32 0.353-0.78 0.53-1.38 0.53zM56.65 0.45v0c-2.367 0-4.417-0.517-6.15-1.55-1.733-1.033-3.073-2.493-4.02-4.38-0.953-1.88-1.43-4.103-1.43-6.67v0c0-1.933 0.267-3.677 0.8-5.23 0.533-1.547 1.317-2.87 2.35-3.97 1.033-1.1 2.26-1.943 3.68-2.53 1.413-0.58 3.003-0.87 4.77-0.87v0c2.367 0 4.417 0.517 6.15 1.55 1.733 1.033 3.077 2.493 4.03 4.38 0.947 1.88 1.42 4.103 1.42 6.67v0c0 1.933-0.267 3.667-0.8 5.2-0.533 1.533-1.317 2.857-2.35 3.97-1.033 1.12-2.26 1.97-3.68 2.55-1.413 0.587-3.003 0.88-4.77 0.88zM56.65-2.8v0c1.5 0 2.817-0.367 3.95-1.1 1.133-0.733 2.01-1.8 2.63-3.2 0.613-1.4 0.92-3.083 0.92-5.05v0c0-3.033-0.673-5.35-2.02-6.95-1.353-1.6-3.18-2.4-5.48-2.4v0c-1.533 0-2.86 0.357-3.98 1.07-1.113 0.72-1.977 1.77-2.59 3.15-0.62 1.387-0.93 3.097-0.93 5.13v0c0 3 0.683 5.307 2.05 6.92 1.367 1.62 3.183 2.43 5.45 2.43zM76.35 0.35v0c-0.667 0-1.167-0.183-1.5-0.55-0.333-0.367-0.5-0.883-0.5-1.55v0-20.85c0-0.667 0.167-1.177 0.5-1.53 0.333-0.347 0.817-0.52 1.45-0.52v0c0.633 0 1.123 0.173 1.47 0.52 0.353 0.353 0.53 0.863 0.53 1.53v0 4.3l-0.55-0.6c0.7-1.933 1.84-3.393 3.42-4.38 1.587-0.98 3.413-1.47 5.48-1.47v0c1.933 0 3.54 0.35 4.82 1.05 1.287 0.7 2.247 1.757 2.88 3.17 0.633 1.42 0.95 3.213 0.95 5.38v0 13.4c0 0.667-0.173 1.183-0.52 1.55-0.353 0.367-0.847 0.55-1.48 0.55v0c-0.667 0-1.173-0.183-1.52-0.55-0.353-0.367-0.53-0.883-0.53-1.55v0-13.15c0-2.267-0.443-3.927-1.33-4.98-0.88-1.047-2.287-1.57-4.22-1.57v0c-2.233 0-4.007 0.69-5.32 2.07-1.32 1.387-1.98 3.23-1.98 5.53v0 12.1c0 1.4-0.683 2.1-2.05 2.1zM112.5 0.45v0c-1.9 0-3.49-0.343-4.77-1.03-1.287-0.68-2.247-1.68-2.88-3-0.633-1.313-0.95-2.92-0.95-4.82v0-12.75h-3.35c-0.567 0-1-0.143-1.3-0.43-0.3-0.28-0.45-0.67-0.45-1.17v0c0-0.5 0.15-0.883 0.45-1.15 0.3-0.267 0.733-0.4 1.3-0.4v0h3.35v-5.75c0-0.667 0.183-1.177 0.55-1.53 0.367-0.347 0.867-0.52 1.5-0.52v0c0.633 0 1.123 0.173 1.47 0.52 0.353 0.353 0.53 0.863 0.53 1.53v0 5.75h6.3c0.567 0 1 0.133 1.3 0.4 0.3 0.267 0.45 0.65 0.45 1.15v0c0 0.5-0.15 0.89-0.45 1.17-0.3 0.287-0.733 0.43-1.3 0.43v0h-6.3v12.35c0 1.9 0.4 3.34 1.2 4.32 0.8 0.987 2.1 1.48 3.9 1.48v0c0.633 0 1.177-0.067 1.63-0.2 0.447-0.133 0.82-0.2 1.12-0.2v0c0.3-0.033 0.55 0.067 0.75 0.3 0.2 0.233 0.3 0.633 0.3 1.2v0c0 0.4-0.073 0.767-0.22 1.1-0.153 0.333-0.413 0.567-0.78 0.7v0c-0.4 0.133-0.923 0.26-1.57 0.38-0.653 0.113-1.247 0.17-1.78 0.17zM127.9 0.45v0c-1.667 0-3.16-0.327-4.48-0.98-1.313-0.647-2.353-1.537-3.12-2.67-0.767-1.133-1.15-2.4-1.15-3.8v0c0-1.8 0.46-3.217 1.38-4.25 0.913-1.033 2.43-1.767 4.55-2.2 2.113-0.433 5.003-0.65 8.67-0.65v0h2.25v2.65h-2.2c-2.7 0-4.823 0.123-6.37 0.37-1.553 0.253-2.64 0.68-3.26 1.28-0.613 0.6-0.92 1.45-0.92 2.55v0c0 1.367 0.473 2.483 1.42 3.35 0.953 0.867 2.247 1.3 3.88 1.3v0c1.333 0 2.507-0.317 3.52-0.95 1.02-0.633 1.82-1.5 2.4-2.6 0.587-1.1 0.88-2.367 0.88-3.8v0-5.7c0-2.067-0.417-3.56-1.25-4.48-0.833-0.913-2.2-1.37-4.1-1.37v0c-1.167 0-2.333 0.15-3.5 0.45-1.167 0.3-2.4 0.783-3.7 1.45v0c-0.467 0.233-0.867 0.307-1.2 0.22-0.333-0.08-0.6-0.253-0.8-0.52-0.2-0.267-0.317-0.577-0.35-0.93-0.033-0.347 0.04-0.687 0.22-1.02 0.187-0.333 0.48-0.6 0.88-0.8v0c1.467-0.733 2.917-1.267 4.35-1.6 1.433-0.333 2.8-0.5 4.1-0.5v0c2.1 0 3.833 0.34 5.2 1.02 1.367 0.687 2.383 1.72 3.05 3.1 0.667 1.387 1 3.163 1 5.33v0 13.55c0 0.667-0.157 1.183-0.47 1.55-0.32 0.367-0.78 0.55-1.38 0.55v0c-0.633 0-1.117-0.183-1.45-0.55-0.333-0.367-0.5-0.883-0.5-1.55v0-3.9h0.45c-0.267 1.267-0.773 2.35-1.52 3.25-0.753 0.9-1.68 1.6-2.78 2.1-1.1 0.5-2.333 0.75-3.7 0.75zM151.9 9.35v0c-0.5 0-0.9-0.133-1.2-0.4-0.3-0.267-0.477-0.623-0.53-1.07-0.047-0.453 0.03-0.913 0.23-1.38v0l3.45-7.75v1.75l-9.6-22.3c-0.2-0.5-0.267-0.967-0.2-1.4 0.067-0.433 0.267-0.783 0.6-1.05 0.333-0.267 0.8-0.4 1.4-0.4v0c0.533 0 0.95 0.117 1.25 0.35 0.3 0.233 0.567 0.65 0.8 1.25v0l8.2 20.1h-1.35l8.3-20.1c0.267-0.6 0.55-1.017 0.85-1.25 0.3-0.233 0.733-0.35 1.3-0.35v0c0.533 0 0.943 0.133 1.23 0.4 0.28 0.267 0.447 0.607 0.5 1.02 0.047 0.42-0.03 0.88-0.23 1.38v0l-12.8 29.6c-0.267 0.6-0.56 1.017-0.88 1.25-0.313 0.233-0.753 0.35-1.32 0.35zM178.55 9.35v0c-0.5 0-0.9-0.133-1.2-0.4-0.3-0.267-0.477-0.623-0.53-1.07-0.047-0.453 0.03-0.913 0.23-1.38v0l3.45-7.75v1.75l-9.6-22.3c-0.2-0.5-0.267-0.967-0.2-1.4 0.067-0.433 0.267-0.783 0.6-1.05 0.333-0.267 0.8-0.4 1.4-0.4v0c0.533 0 0.95 0.117 1.25 0.35 0.3 0.233 0.567 0.65 0.8 1.25v0l8.2 20.1h-1.35l8.3-20.1c0.267-0.6 0.55-1.017 0.85-1.25 0.3-0.233 0.733-0.35 1.3-0.35v0c0.533 0 0.94 0.133 1.22 0.4 0.287 0.267 0.453 0.607 0.5 1.02 0.053 0.42-0.02 0.88-0.22 1.38v0l-12.8 29.6c-0.267 0.6-0.56 1.017-0.88 1.25-0.313 0.233-0.753 0.35-1.32 0.35zM200.85 0.35v0c-0.667 0-1.167-0.183-1.5-0.55-0.333-0.367-0.5-0.883-0.5-1.55v0-20.85c0-0.667 0.167-1.177 0.5-1.53 0.333-0.347 0.817-0.52 1.45-0.52v0c0.633 0 1.123 0.173 1.47 0.52 0.353 0.353 0.53 0.863 0.53 1.53v0 4.3l-0.55-0.6c0.7-1.933 1.84-3.393 3.42-4.38 1.587-0.98 3.413-1.47 5.48-1.47v0c1.933 0 3.54 0.35 4.82 1.05 1.287 0.7 2.247 1.757 2.88 3.17 0.633 1.42 0.95 3.213 0.95 5.38v0 13.4c0 0.667-0.177 1.183-0.53 1.55-0.347 0.367-0.837 0.55-1.47 0.55v0c-0.667 0-1.177-0.183-1.53-0.55-0.347-0.367-0.52-0.883-0.52-1.55v0-13.15c0-2.267-0.443-3.927-1.33-4.98-0.88-1.047-2.287-1.57-4.22-1.57v0c-2.233 0-4.01 0.69-5.33 2.07-1.313 1.387-1.97 3.23-1.97 5.53v0 12.1c0 1.4-0.683 2.1-2.05 2.1zM238.2 0.45v0c-2.567 0-4.777-0.507-6.63-1.52-1.847-1.02-3.28-2.463-4.3-4.33-1.013-1.867-1.52-4.1-1.52-6.7v0c0-2.533 0.5-4.743 1.5-6.63 1-1.88 2.373-3.353 4.12-4.42 1.753-1.067 3.78-1.6 6.08-1.6v0c1.633 0 3.1 0.273 4.4 0.82 1.3 0.553 2.407 1.347 3.32 2.38 0.92 1.033 1.62 2.283 2.1 3.75 0.487 1.467 0.73 3.117 0.73 4.95v0c0 0.533-0.15 0.923-0.45 1.17-0.3 0.253-0.733 0.38-1.3 0.38v0h-17.4v-2.65h16.45l-0.8 0.65c0-1.8-0.267-3.327-0.8-4.58-0.533-1.247-1.31-2.203-2.33-2.87-1.013-0.667-2.287-1-3.82-1v0c-1.7 0-3.143 0.39-4.33 1.17-1.18 0.787-2.07 1.873-2.67 3.26-0.6 1.38-0.9 2.987-0.9 4.82v0 0.3c0 3.067 0.74 5.4 2.22 7 1.487 1.6 3.597 2.4 6.33 2.4v0c1.133 0 2.257-0.15 3.37-0.45 1.12-0.3 2.213-0.8 3.28-1.5v0c0.467-0.3 0.89-0.443 1.27-0.43 0.387 0.02 0.697 0.137 0.93 0.35 0.233 0.22 0.39 0.487 0.47 0.8 0.087 0.32 0.053 0.663-0.1 1.03-0.147 0.367-0.437 0.683-0.87 0.95v0c-1.1 0.8-2.4 1.417-3.9 1.85-1.5 0.433-2.983 0.65-4.45 0.65z" fill="#ffffff" fill-rule="nonzero" stroke="none" stroke-width="1" stroke-linecap="butt" stroke-linejoin="miter" stroke-miterlimit="10" stroke-dasharray="" stroke-dashoffset="0" font-family="none" font-weight="none" font-size="none" text-anchor="none" style="mix-blend-mode: normal" data-fill-palette-color="primary" opacity="1"></path><path transform="translate(0,47.95)" d="M6.35 0.35v0c-0.6 0-1.067-0.177-1.4-0.53-0.333-0.347-0.5-0.837-0.5-1.47v0-31.95c0-0.667 0.167-1.167 0.5-1.5 0.333-0.333 0.8-0.5 1.4-0.5v0c0.533 0 0.96 0.11 1.28 0.33 0.313 0.213 0.603 0.57 0.87 1.07v0l13.7 25.8h-1.5l13.65-25.8c0.267-0.5 0.55-0.857 0.85-1.07 0.3-0.22 0.733-0.33 1.3-0.33v0c0.567 0 1.017 0.167 1.35 0.5 0.333 0.333 0.5 0.833 0.5 1.5v0 31.95c0 0.633-0.157 1.123-0.47 1.47-0.32 0.353-0.797 0.53-1.43 0.53v0c-0.6 0-1.067-0.177-1.4-0.53-0.333-0.347-0.5-0.837-0.5-1.47v0-28.1h1.2l-12.5 23.45c-0.233 0.433-0.473 0.74-0.72 0.92-0.253 0.187-0.613 0.28-1.08 0.28v0c-0.467 0-0.833-0.1-1.1-0.3-0.267-0.2-0.5-0.5-0.7-0.9v0l-12.65-23.5h1.2v28.15c0 0.633-0.157 1.123-0.47 1.47-0.32 0.353-0.78 0.53-1.38 0.53zM55.15 0.45v0c-1.967 0-3.593-0.36-4.88-1.08-1.28-0.713-2.243-1.787-2.89-3.22-0.653-1.433-0.98-3.217-0.98-5.35v0-13.4c0-0.7 0.173-1.217 0.52-1.55 0.353-0.333 0.847-0.5 1.48-0.5v0c0.667 0 1.173 0.167 1.52 0.5 0.353 0.333 0.53 0.85 0.53 1.55v0 13.35c0 2.133 0.44 3.723 1.32 4.77 0.887 1.053 2.28 1.58 4.18 1.58v0c2.067 0 3.75-0.7 5.05-2.1 1.3-1.4 1.95-3.233 1.95-5.5v0-12.1c0-0.7 0.177-1.217 0.53-1.55 0.347-0.333 0.853-0.5 1.52-0.5v0c0.633 0 1.123 0.167 1.47 0.5 0.353 0.333 0.53 0.85 0.53 1.55v0 20.85c0 1.4-0.65 2.1-1.95 2.1v0c-0.633 0-1.123-0.183-1.47-0.55-0.353-0.367-0.53-0.883-0.53-1.55v0-4.55l0.65 0.7c-0.667 1.967-1.76 3.467-3.28 4.5-1.513 1.033-3.27 1.55-5.27 1.55zM82.8 0.45v0c-1.5 0-3.01-0.183-4.53-0.55-1.513-0.367-2.92-1-4.22-1.9v0c-0.333-0.233-0.567-0.51-0.7-0.83-0.133-0.313-0.177-0.63-0.13-0.95 0.053-0.313 0.19-0.587 0.41-0.82 0.213-0.233 0.477-0.377 0.79-0.43 0.32-0.047 0.68 0.03 1.08 0.23v0c1.3 0.8 2.557 1.357 3.77 1.67 1.22 0.32 2.43 0.48 3.63 0.48v0c1.9 0 3.333-0.35 4.3-1.05 0.967-0.7 1.45-1.65 1.45-2.85v0c0-0.933-0.317-1.677-0.95-2.23-0.633-0.547-1.633-0.97-3-1.27v0l-4.55-1c-2.1-0.433-3.66-1.183-4.68-2.25-1.013-1.067-1.52-2.45-1.52-4.15v0c0-1.5 0.393-2.793 1.18-3.88 0.78-1.08 1.887-1.92 3.32-2.52 1.433-0.6 3.1-0.9 5-0.9v0c1.467 0 2.86 0.19 4.18 0.57 1.313 0.387 2.503 0.997 3.57 1.83v0c0.333 0.233 0.56 0.507 0.68 0.82 0.113 0.32 0.127 0.637 0.04 0.95-0.08 0.32-0.237 0.587-0.47 0.8-0.233 0.22-0.517 0.347-0.85 0.38-0.333 0.033-0.683-0.067-1.05-0.3v0c-1-0.667-2.017-1.16-3.05-1.48-1.033-0.313-2.05-0.47-3.05-0.47v0c-1.867 0-3.283 0.367-4.25 1.1-0.967 0.733-1.45 1.7-1.45 2.9v0c0 0.933 0.3 1.7 0.9 2.3 0.6 0.6 1.533 1.033 2.8 1.3v0l4.55 0.95c2.167 0.467 3.793 1.207 4.88 2.22 1.08 1.02 1.62 2.397 1.62 4.13v0c0 2.2-0.883 3.95-2.65 5.25-1.767 1.3-4.117 1.95-7.05 1.95zM100.65 0.25v0c-0.667 0-1.167-0.193-1.5-0.58-0.333-0.38-0.5-0.92-0.5-1.62v0-20.45c0-0.7 0.167-1.233 0.5-1.6 0.333-0.367 0.833-0.55 1.5-0.55v0c0.633 0 1.133 0.183 1.5 0.55 0.367 0.367 0.55 0.9 0.55 1.6v0 20.45c0 0.7-0.177 1.24-0.53 1.62-0.347 0.387-0.853 0.58-1.52 0.58zM100.65-30.15v0c-0.833 0-1.483-0.227-1.95-0.68-0.467-0.447-0.7-1.053-0.7-1.82v0c0-0.8 0.233-1.41 0.7-1.83 0.467-0.413 1.117-0.62 1.95-0.62v0c0.867 0 1.527 0.207 1.98 0.62 0.447 0.42 0.67 1.03 0.67 1.83v0c0 0.767-0.223 1.373-0.67 1.82-0.453 0.453-1.113 0.68-1.98 0.68zM120.55 0.45v0c-2.433 0-4.533-0.533-6.3-1.6-1.767-1.067-3.127-2.56-4.08-4.48-0.947-1.913-1.42-4.137-1.42-6.67v0c0-1.933 0.267-3.667 0.8-5.2 0.533-1.533 1.317-2.843 2.35-3.93 1.033-1.08 2.273-1.903 3.72-2.47 1.453-0.567 3.097-0.85 4.93-0.85v0c1.2 0 2.45 0.183 3.75 0.55 1.3 0.367 2.483 1 3.55 1.9v0c0.333 0.233 0.55 0.517 0.65 0.85 0.1 0.333 0.1 0.657 0 0.97-0.1 0.32-0.267 0.587-0.5 0.8-0.233 0.22-0.527 0.347-0.88 0.38-0.347 0.033-0.703-0.083-1.07-0.35v0c-0.867-0.667-1.75-1.133-2.65-1.4-0.9-0.267-1.767-0.4-2.6-0.4v0c-1.3 0-2.433 0.207-3.4 0.62-0.967 0.42-1.783 1.013-2.45 1.78-0.667 0.767-1.177 1.717-1.53 2.85-0.347 1.133-0.52 2.45-0.52 3.95v0c0 2.9 0.683 5.19 2.05 6.87 1.367 1.687 3.317 2.53 5.85 2.53v0c0.833 0 1.69-0.133 2.57-0.4 0.887-0.267 1.78-0.733 2.68-1.4v0c0.367-0.267 0.717-0.383 1.05-0.35 0.333 0.033 0.617 0.157 0.85 0.37 0.233 0.22 0.39 0.497 0.47 0.83 0.087 0.333 0.08 0.657-0.02 0.97-0.1 0.32-0.317 0.597-0.65 0.83v0c-1.067 0.867-2.233 1.49-3.5 1.87-1.267 0.387-2.5 0.58-3.7 0.58z" fill="#ffffff" fill-rule="nonzero" stroke="none" stroke-width="1" stroke-linecap="butt" stroke-linejoin="miter" stroke-miterlimit="10" stroke-dasharray="" stroke-dashoffset="0" font-family="none" font-weight="none" font-size="none" text-anchor="none" style="mix-blend-mode: normal" data-fill-palette-color="primary" opacity="1"></path></g></svg></g></svg></g></svg></g></svg></g><g><svg viewBox="0 0 222.0892371599841 222.0892371599841" height="222.0892371599841" width="222.0892371599841"><g><svg></svg></g><g id="icon-0"><svg viewBox="0 0 222.0892371599841 222.0892371599841" height="222.0892371599841" width="222.0892371599841"><g><path d="M0 111.045c0-61.328 49.716-111.045 111.045-111.045 61.328 0 111.045 49.716 111.044 111.045 0 61.328-49.716 111.045-111.044 111.044-61.328 0-111.045-49.716-111.045-111.044zM111.045 215.506c57.693 0 104.462-46.769 104.461-104.461 0-57.693-46.769-104.462-104.461-104.462-57.693 0-104.462 46.769-104.462 104.462 0 57.693 46.769 104.462 104.462 104.461z" data-fill-palette-color="accent" fill="#ffffff" stroke="transparent"></path></g><g transform="matrix(1,0,0,1,51.594410470952994,69.85095343362826)"><svg viewBox="0 0 118.9004162180781 82.38733029272758" height="82.38733029272758" width="118.9004162180781"><g><svg xmlns="http://www.w3.org/2000/svg" xmlns:xlink="http://www.w3.org/1999/xlink" version="1.1" x="0" y="0" viewBox="5.052 11.608 75.83376289044077 52.54599999999999" enable-background="new 0 0 90 90" xml:space="preserve" height="82.38733029272758" width="118.9004162180781" class="icon-dxe-0" data-fill-palette-color="accent" id="dxe-0"><path d="M80.871 50.636V25.129C80.871 24.547 80.875 23.975 80.878 23.414 80.907 18.899 80.932 15 78.944 13 78.014 12.063 76.732 11.608 75.025 11.608H11.967C5.581 11.608 5.052 18.004 5.052 25.129V50.635C5.052 57.759 5.581 64.154 11.967 64.154H75.026C76.733 64.154 78.015 63.699 78.946 62.762 80.932 60.762 80.908 56.864 80.879 52.35A239 239 0 0 1 80.871 50.636M79.342 52.359C79.369 56.319 79.394 59.739 78.083 61.347 77.448 62.125 76.448 62.504 75.025 62.504H11.967C7.843 62.504 6.586 59.731 6.586 50.635V25.129C6.586 16.033 7.843 13.26 11.967 13.26H75.026C76.45 13.26 77.45 13.638 78.084 14.415 79.395 16.025 79.37 19.443 79.343 23.404L79.339 50.635z" fill="#ffffff" data-fill-palette-color="accent"></path><path d="M22.241 33.926H19.176V17.092C19.176 16.82 18.893 16.597 18.546 16.597S17.916 16.819 17.916 17.092V33.926H14.85C14.369 33.926 13.992 34.454 13.978 35.135 13.974 35.148 13.969 35.16 13.969 35.173S13.974 35.199 13.978 35.211C13.992 35.892 14.369 36.42 14.85 36.42H17.916V58.67C17.916 58.943 18.198 59.165 18.546 59.165S19.176 58.944 19.176 58.67V36.42H22.241C22.73 36.42 23.114 35.873 23.114 35.173S22.73 33.926 22.241 33.926M18.388 17.157C18.388 17.091 18.458 17.036 18.545 17.036 18.631 17.036 18.702 17.09 18.702 17.157V33.926H18.388zM18.703 58.547C18.703 58.613 18.632 58.668 18.546 58.668S18.389 58.614 18.389 58.547V36.42H18.703zM34.455 36.634H31.389V17.092C31.389 16.82 31.106 16.597 30.759 16.597S30.129 16.819 30.129 17.092V36.634H27.063C26.582 36.634 26.205 37.162 26.191 37.843 26.187 37.856 26.182 37.868 26.182 37.881S26.187 37.907 26.191 37.919C26.205 38.601 26.582 39.128 27.063 39.128H30.129V58.67C30.129 58.943 30.411 59.165 30.759 59.165S31.389 58.944 31.389 58.67V39.128H34.455C34.944 39.128 35.328 38.58 35.328 37.881S34.944 36.634 34.455 36.634M30.602 17.157C30.602 17.091 30.672 17.036 30.759 17.036 30.845 17.036 30.916 17.09 30.916 17.157V36.634H30.602zM30.916 58.547C30.916 58.613 30.845 58.668 30.759 58.668S30.602 58.614 30.602 58.547V39.128H30.916zM46.668 27.656H43.602V17.092C43.602 16.82 43.319 16.597 42.972 16.597S42.341 16.819 42.341 17.092V27.655H39.275C38.794 27.655 38.417 28.183 38.403 28.864 38.399 28.877 38.393 28.888 38.393 28.902S38.398 28.928 38.403 28.94C38.417 29.622 38.794 30.149 39.275 30.149H42.341V58.67C42.341 58.943 42.624 59.165 42.972 59.165 43.319 59.165 43.602 58.944 43.602 58.67V30.149H46.668C47.157 30.149 47.541 29.602 47.541 28.903 47.542 28.204 47.157 27.656 46.668 27.656M42.815 17.157C42.815 17.091 42.885 17.036 42.973 17.036 43.059 17.036 43.13 17.09 43.13 17.157V27.656H42.816zM43.129 58.547C43.129 58.613 43.059 58.668 42.972 58.668 42.884 58.668 42.814 58.614 42.814 58.547V30.149H43.128zM58.882 22.727H55.816V17.092C55.816 16.82 55.534 16.597 55.186 16.597S54.555 16.819 54.555 17.092V22.727H51.489C51.009 22.727 50.631 23.255 50.617 23.936 50.613 23.949 50.608 23.961 50.608 23.974S50.613 24 50.617 24.012C50.631 24.693 51.008 25.221 51.489 25.221H54.555V58.67C54.555 58.943 54.838 59.165 55.186 59.165S55.816 58.944 55.816 58.67V25.221H58.882C59.371 25.221 59.755 24.673 59.755 23.974S59.371 22.727 58.882 22.727M55.028 17.157C55.028 17.091 55.098 17.036 55.186 17.036 55.272 17.036 55.343 17.09 55.343 17.157V22.727H55.029zM55.343 58.547C55.343 58.613 55.273 58.668 55.186 58.668 55.098 58.668 55.028 58.614 55.028 58.547V25.221H55.342zM71.095 21.48H68.029V17.092C68.029 16.82 67.747 16.597 67.399 16.597S66.768 16.819 66.768 17.092V21.48H63.703C63.222 21.48 62.845 22.008 62.831 22.689 62.827 22.702 62.822 22.714 62.822 22.727S62.827 22.753 62.831 22.765C62.845 23.446 63.222 23.974 63.703 23.974H66.768V58.67C66.768 58.943 67.051 59.165 67.399 59.165S68.029 58.944 68.029 58.67V23.974H71.095C71.584 23.974 71.968 23.426 71.968 22.727S71.584 21.48 71.095 21.48M67.242 17.157C67.242 17.091 67.312 17.036 67.4 17.036 67.486 17.036 67.557 17.09 67.557 17.157V21.48H67.243zM67.556 58.547C67.556 58.613 67.486 58.668 67.399 58.668S67.241 58.614 67.241 58.547V23.974H67.555z" fill="#ffffff" data-fill-palette-color="accent"></path><path d="M6.273 37.464C6.11 37.464 5.98 37.651 5.98 37.881 5.979 38.112 6.111 38.297 6.273 38.298L9.993 38.297C10.156 38.298 10.287 38.11 10.288 37.882 10.288 37.652 10.156 37.465 9.995 37.465z" fill="#ffffff" data-fill-palette-color="accent"></path><path d="M75.76 37.464C75.597 37.464 75.467 37.651 75.467 37.881 75.466 38.112 75.598 38.297 75.76 38.298L79.48 38.297C79.643 38.298 79.774 38.11 79.775 37.882 79.775 37.652 79.643 37.465 79.482 37.465z" fill="#ffffff" data-fill-palette-color="accent"></path></svg></g></svg></g></svg></g></svg></g></svg></g></svg></g><defs></defs></svg><rect width="395.52" height="134.70949332163187" fill="none" stroke="none" visibility="hidden"></rect></g></svg></g></svg>